<svg width="48" height="48" viewBox="0 0 48 48" fill="none" xmlns="http://www.w3.org/2000/svg">
<path d="M15.64 14.21C16.0542 14.21 16.39 13.8742 16.39 13.46C16.39 13.0458 16.0542 12.71 15.64 12.71C15.2258 12.71 14.89 13.0458 14.89 13.46C14.89 13.8742 15.2258 14.21 15.64 14.21Z" fill="black"/>
<path d="M15.64 16.93V31.91M33.11 31.91V22.3C33.1074 20.7572 32.4933 19.2784 31.4025 18.1875C30.3116 17.0967 28.8328 16.4826 27.29 16.48C25.7455 16.48 24.2642 17.0928 23.1711 18.184C22.0781 19.2752 21.4627 20.7555 21.46 22.3V31.91M21.46 22.3V16.93" stroke="black" stroke-linecap="round" stroke-linejoin="round"/>
<path d="M40.5 5.5H7.5C6.96957 5.5 6.46086 5.71071 6.08579 6.08579C5.71071 6.46086 5.5 6.96957 5.5 7.5V40.5C5.5 41.0304 5.71071 41.5391 6.08579 41.9142C6.46086 42.2893 6.96957 42.5 7.5 42.5H40.5C41.0304 42.5 41.5391 42.2893 41.9142 41.9142C42.2893 41.5391 42.5 41.0304 42.5 40.5V7.5C42.5 6.96957 42.2893 6.46086 41.9142 6.08579C41.5391 5.71071 41.0304 5.5 40.5 5.5V5.5Z" stroke="black" stroke-linecap="round" stroke-linejoin="round"/>
</svg>
